<?xml version="1.0" encoding="utf-8"?>
<!-- Generator: Adobe Illustrator 23.0.3, SVG Export Plug-In . SVG Version: 6.00 Build 0)  -->
<svg version="1.1" id="Layer_1" xmlns="http://www.w3.org/2000/svg" xmlns:xlink="http://www.w3.org/1999/xlink" x="0px" y="0px"
	 viewBox="0 0 62.4 62.4" style="enable-background:new 0 0 62.4 62.4;" xml:space="preserve">
<style type="text/css">
	.st0{fill:#52C2CD;}
	.st1{fill:#40BF66;}
	.st2{fill:#F6782C;}
	.st3{fill:#E8302E;}
</style>
<path class="st2" d="M31.2,61.5c-16.7,0-30.3-13.6-30.3-30.3c0-16.7,13.6-30.3,30.3-30.3c16.7,0,30.3,13.6,30.3,30.3
	C61.5,47.9,47.9,61.5,31.2,61.5z M31.2,4.8C16.7,4.8,4.8,16.7,4.8,31.2c0,14.5,11.8,26.3,26.3,26.3c14.5,0,26.3-11.8,26.3-26.3
	C57.5,16.7,45.7,4.8,31.2,4.8z"/>
<g>
	<g>
		<g>
			<path class="st2" d="M20.6,18.2c0,0-4.6-0.1-5.4,5.4"/>
			<path class="st2" d="M15.2,25.5c-0.1,0-0.2,0-0.3,0c-1.1-0.1-1.9-1.1-1.7-2.2c0.7-5.6,5.1-7.1,7.3-7.1c0,0,0,0,0.1,0
				c1.1,0,2,0.9,2,2c0,1.1-0.9,2-2,2c0,0,0,0,0,0c-0.5,0-2.9,0.2-3.4,3.6C17.1,24.8,16.2,25.5,15.2,25.5z"/>
		</g>
		<g>
			<path class="st2" d="M41.8,18.2c0,0,4.6-0.1,5.4,5.4"/>
			<path class="st2" d="M47.1,25.5c-1,0-1.8-0.7-2-1.7c-0.5-3.5-3.1-3.6-3.3-3.6c0,0,0,0,0,0c-1.1,0-2-0.9-2-2c0-1.1,0.9-2,2-2
				c2.2,0,6.6,1.4,7.4,7.1c0.1,1.1-0.6,2.1-1.7,2.2C47.3,25.5,47.2,25.5,47.1,25.5z"/>
		</g>
	</g>
</g>
<g>
	<g>
		<path class="st2" d="M31.5,46.1h-0.6c-16.1,0-19.9-13.2-20-13.4l3.9-1.1c0.1,0.4,3.1,10.4,16.1,10.4h0.6
			c13.1,0,16.1-10.3,16.1-10.4l3.9,1.1C51.4,32.9,47.7,46.1,31.5,46.1z"/>
		<g>
			<path class="st2" d="M15.6,30.8c0,0-1.3-0.9-3.7,0.1c-1.1,0.5-1.3,0.5-2.2,2.1"/>
			<path class="st2" d="M9.8,35c-0.3,0-0.7-0.1-1-0.3c-0.9-0.6-1.3-1.8-0.7-2.7c1.1-1.8,1.5-2.2,3-2.9c3.4-1.5,5.5-0.1,5.7,0.1
				l-2.3,3.3c0,0,0,0,0.1,0.1c0,0-0.6-0.3-1.8,0.2c-0.3,0.1-0.6,0.2-0.6,0.3c-0.1,0.1-0.3,0.4-0.6,1C11.1,34.6,10.5,35,9.8,35z"/>
		</g>
		<g>
			<path class="st2" d="M46.5,30.8c0,0,1.3-0.9,3.7,0.1c1.1,0.5,1.3,1.5,2.2,3.1"/>
			<path class="st2" d="M52.4,36c-0.7,0-1.3-0.3-1.7-1c-0.3-0.5-0.5-1-0.7-1.4c-0.3-0.5-0.4-0.8-0.5-0.9c-1.2-0.5-1.8-0.3-1.8-0.2
				c0.1,0,0.1-0.1,0.1-0.1l-2.3-3.3c0.2-0.2,2.3-1.5,5.6-0.1c1.5,0.6,2,1.8,2.5,2.8c0.2,0.3,0.3,0.7,0.6,1.1
				c0.6,0.9,0.3,2.2-0.7,2.7C53.1,35.9,52.7,36,52.4,36z"/>
		</g>
	</g>
</g>
</svg>
