<?xml version="1.0" encoding="iso-8859-1"?>
<!-- Generator: Adobe Illustrator 19.0.0, SVG Export Plug-In . SVG Version: 6.00 Build 0)  -->
<svg version="1.1" id="Capa_1" xmlns="http://www.w3.org/2000/svg" xmlns:xlink="http://www.w3.org/1999/xlink" x="0px" y="0px"
	 viewBox="0 0 512.077 512.077" style="enable-background:new 0 0 512.077 512.077;" xml:space="preserve">
<g>
	<g>
		<circle style="fill:#FFE17D;" cx="256.042" cy="256.001" r="248.5"/>
		<path style="fill:#FFD164;" d="M292.114,468.428c-137.243,0-248.5-111.258-248.5-248.5c0-59.433,20.891-113.971,55.695-156.733
			C43.325,108.76,7.542,178.191,7.542,256.001c0,137.242,111.257,248.5,248.5,248.5c77.81,0,147.242-35.784,192.806-91.769
			C406.086,447.536,351.548,468.428,292.114,468.428z"/>
		<path style="fill:#9C6846;" d="M161.466,264.275c-7.962-1.982-13.165,7.943-7.29,13.671
			c27.522,26.834,63.013,43.051,101.866,43.051c38.853,0,74.343-16.217,101.866-43.051c5.875-5.728,0.672-15.653-7.29-13.671
			c-29.454,7.332-61.284,11.381-94.575,11.381C222.75,275.655,190.92,271.607,161.466,264.275z"/>
		<path style="fill:#7D5046;" d="M350.617,264.274c-29.454,7.333-61.284,11.381-94.576,11.381s-65.122-4.048-94.575-11.38
			c-7.962-1.982-13.165,7.943-7.291,13.671c5.291,5.159,10.96,9.79,16.808,14.124c27.36,3.08,55.74,4.878,85.057,4.878
			c29.317,0,57.697-1.798,85.056-4.878c5.848-4.335,11.517-8.965,16.809-14.125C363.782,272.217,358.579,262.292,350.617,264.274z"
			/>
		<path style="fill:#FFD164;" d="M39.525,445.179l64.191,45.85c28.767,20.548,68.173,17.286,93.17-7.711l0,0
			c21.611-21.611,27.303-54.474,14.22-82.094l-24.966-52.706c-2.415-5.099-8.257-7.591-13.609-5.807l0,0
			c-4.555,1.518-7.627,5.781-7.627,10.583v25.969l-53.67-73.187c-4.564-6.224-13.602-6.915-19.06-1.458h0
			c-3.932,3.932-4.82,9.979-2.183,14.875l35.236,65.438l-53.463-53.463c-4.909-4.909-12.867-4.909-17.776,0h0
			c-4.597,4.597-4.93,11.941-0.768,16.935l49.334,59.201L43.1,367.969c-4.981-3.321-11.614-2.664-15.847,1.569l0,0
			c-5.222,5.222-4.833,13.801,0.84,18.529l57.454,47.878L50.223,424.17c-7.719-2.573-15.69,3.172-15.69,11.309v0
			C34.533,439.329,36.392,442.941,39.525,445.179z"/>
		<path style="fill:#FFD164;" d="M472.559,445.179l-64.191,45.85c-28.767,20.548-68.173,17.286-93.17-7.711l0,0
			c-21.611-21.611-27.303-54.474-14.22-82.094l24.966-52.706c2.415-5.099,8.257-7.591,13.609-5.807l0,0
			c4.555,1.518,7.627,5.781,7.627,10.583v25.969l53.67-73.187c4.564-6.224,13.602-6.915,19.06-1.458l0,0
			c3.932,3.932,4.82,9.979,2.183,14.875l-35.236,65.438l53.463-53.463c4.909-4.909,12.867-4.909,17.776,0h0
			c4.597,4.597,4.93,11.941,0.768,16.935l-49.334,59.201l59.452-39.635c4.981-3.321,11.614-2.664,15.847,1.569l0,0
			c5.222,5.222,4.833,13.801-0.84,18.529l-57.454,47.878l35.324-11.775c7.719-2.573,15.69,3.172,15.69,11.309v0
			C477.551,439.329,475.691,442.941,472.559,445.179z"/>
	</g>
	<g>
		<path d="M376.36,183.302c1.648,0,3.309-0.542,4.694-1.655c3.229-2.595,3.742-7.316,1.147-10.544
			c-9.622-11.97-23.44-18.835-37.914-18.835s-28.292,6.865-37.914,18.835c-2.595,3.229-2.082,7.949,1.147,10.544
			c3.228,2.595,7.95,2.081,10.544-1.147c6.76-8.41,16.317-13.233,26.223-13.233s19.463,4.823,26.223,13.233
			C371.991,182.343,374.166,183.302,376.36,183.302z"/>
		<path d="M194.105,180.5c2.594,3.228,7.314,3.742,10.544,1.147c3.229-2.595,3.742-7.315,1.147-10.544
			c-9.621-11.97-23.44-18.835-37.914-18.835c-14.473,0-28.292,6.865-37.914,18.835c-2.595,3.229-2.082,7.949,1.147,10.544
			c1.385,1.113,3.045,1.655,4.694,1.655c2.194,0,4.369-0.958,5.851-2.802c6.76-8.41,16.317-13.233,26.223-13.233
			S187.346,172.091,194.105,180.5z"/>
		<path d="M256.071,328.475c39.186,0,77.227-16.047,107.113-45.186c5.158-5.029,6.273-12.626,2.774-18.906
			c-3.417-6.133-10.292-9.113-17.112-7.414c-29.747,7.405-60.96,11.16-92.775,11.16c-31.816,0-63.03-3.755-92.774-11.16h0
			c-6.816-1.699-13.695,1.281-17.112,7.414c-3.499,6.28-2.384,13.878,2.773,18.907C178.843,312.427,216.884,328.475,256.071,328.475
			z M159.177,272.009c0.034-0.264,0.2-0.486,0.242-0.519c0.004,0,0.011-0.001,0.021-0.001c0.038,0,0.116,0.006,0.232,0.036
			c30.929,7.7,63.362,11.604,96.398,11.604c33.035,0,65.468-3.904,96.398-11.604c0.147-0.037,0.232-0.038,0.215-0.047
			c0.08,0.045,0.246,0.268,0.279,0.532c0.016,0.123,0.034,0.262-0.251,0.54c-27.069,26.392-61.391,40.926-96.642,40.926
			c-35.252,0-69.573-14.534-96.642-40.926C159.144,272.271,159.162,272.132,159.177,272.009z"/>
		<path d="M488.738,362.913c19.954-43.422,27.313-91.373,21.269-139.145c-6.443-50.927-27.766-98.203-61.665-136.717
			c-2.736-3.109-7.476-3.412-10.585-0.675s-3.412,7.476-0.675,10.585c31.907,36.252,51.978,80.752,58.043,128.69
			c5.774,45.64-1.432,91.447-20.84,132.791c-3.283,0.277-6.526,1.35-9.409,3.272l-16.432,10.955l16.234-19.481
			c6.69-8.027,6.163-19.652-1.226-27.042c-7.826-7.825-20.56-7.824-28.385,0l-17.335,17.335l11.013-20.452
			c4.24-7.873,2.84-17.412-3.483-23.737c-4.151-4.151-9.886-6.271-15.743-5.827c-5.853,0.448-11.2,3.42-14.67,8.153l-40.129,54.721
			v-3.063c0-8.043-5.126-15.156-12.757-17.699c-8.942-2.981-18.725,1.196-22.76,9.713l-24.969,52.712
			c-14.404,30.408-8.097,66.825,15.696,90.618c0.643,0.643,1.306,1.253,1.965,1.869c-36.751,8.734-74.864,8.736-111.639-0.011
			c0.655-0.613,1.314-1.219,1.953-1.858c23.792-23.793,30.101-60.209,15.696-90.618l-24.969-52.713
			c-4.034-8.517-13.817-12.691-22.76-9.712c-7.63,2.543-12.757,9.656-12.757,17.699v3.063l-40.128-54.721
			c-3.472-4.734-8.819-7.706-14.672-8.153c-5.855-0.444-11.591,1.676-15.741,5.827c-6.323,6.323-7.724,15.862-3.484,23.736
			l11.013,20.452l-17.335-17.335c-7.826-7.825-20.56-7.824-28.385,0c-7.389,7.389-7.917,19.015-1.227,27.042l16.234,19.481
			l-16.432-10.955c-2.88-1.92-6.119-2.993-9.399-3.272C-5.241,266.701,13.746,157.431,85.609,85.568
			c43.603-43.603,101.543-68.626,163.146-70.459c61.332-1.832,120.402,19.43,166.328,59.852c3.109,2.737,7.849,2.436,10.585-0.675
			c2.737-3.109,2.435-7.848-0.675-10.585C376.202,20.757,313.45-1.817,248.308,0.114C182.868,2.062,121.32,28.643,75.002,74.961
			c-75.839,75.838-96.245,190.9-51.606,287.956c-0.498,0.409-0.982,0.839-1.445,1.302c-3.976,3.976-6.11,9.477-5.855,15.094
			s2.878,10.902,7.198,14.502l27.187,22.656c-5.311-1.121-10.926,0.034-15.38,3.244c-5.051,3.64-8.066,9.53-8.066,15.756
			c0,6.259,3.041,12.167,8.134,15.804h0l64.198,45.856c14.039,10.028,30.279,14.946,46.428,14.946
			c13.482-0.001,26.89-3.452,38.906-10.199c23.39,6.772,47.405,10.166,71.418,10.166c23.997,0,47.988-3.392,71.344-10.153
			c12.009,6.738,25.408,10.185,38.883,10.185c16.147,0,32.391-4.919,46.428-14.945l64.197-45.856
			c5.093-3.637,8.134-9.545,8.134-15.804c0-6.226-3.015-12.116-8.066-15.756c-4.454-3.21-10.067-4.364-15.38-3.244l27.188-22.656
			c4.319-3.6,6.942-8.886,7.197-14.502c0.255-5.617-1.879-11.118-5.854-15.094C489.725,363.755,489.238,363.323,488.738,362.913z
			 M108.086,484.925l-64.198-45.856h0c-1.159-0.828-1.852-2.173-1.852-3.598c0-1.97,1.15-3.093,1.836-3.587
			c0.499-0.359,1.39-0.847,2.558-0.847c0.438,0,0.916,0.069,1.426,0.239l35.329,11.776c3.418,1.14,7.169-0.315,8.923-3.465
			c1.755-3.15,1.02-7.103-1.75-9.412l-57.461-47.884c-1.492-1.243-1.778-2.826-1.816-3.658c-0.038-0.833,0.104-2.435,1.477-3.808
			c1.699-1.699,4.385-1.966,6.386-0.632l59.459,39.639c3.101,2.068,7.249,1.545,9.739-1.228c2.491-2.771,2.568-6.951,0.183-9.814
			l-49.34-59.208c-1.69-2.028-1.557-4.965,0.31-6.832c1.978-1.976,5.194-1.977,7.172,0l53.469,53.469
			c2.631,2.631,6.793,2.936,9.78,0.714c2.986-2.221,3.891-6.296,2.126-9.573l-35.24-65.445c-1.075-1.996-0.72-4.415,0.883-6.018
			c1.441-1.441,3.118-1.545,3.991-1.477c0.872,0.066,2.515,0.424,3.72,2.067l53.677,73.195c1.918,2.616,5.298,3.702,8.381,2.693
			c3.082-1.009,5.167-3.885,5.167-7.128v-25.973c0-1.576,1.005-2.97,2.5-3.469c1.752-0.584,3.669,0.234,4.461,1.903l24.969,52.712
			c11.697,24.694,6.575,54.268-12.747,73.59C169.103,500.513,133.979,503.421,108.086,484.925z M481.06,378.633
			c-0.038,0.833-0.324,2.415-1.815,3.658l-57.461,47.884c-2.77,2.309-3.505,6.261-1.75,9.412c1.754,3.15,5.501,4.604,8.923,3.465
			l35.329-11.776c1.87-0.623,3.299,0.114,3.984,0.608c0.686,0.494,1.836,1.617,1.836,3.587c0,1.425-0.692,2.77-1.852,3.598h0
			l-64.198,45.856c-25.894,18.495-61.019,15.588-83.519-6.912c-19.321-19.322-24.444-48.896-12.747-73.59l24.969-52.712
			c0.619-1.307,1.928-2.092,3.307-2.092c0.383,0,0.772,0.061,1.154,0.188c1.495,0.499,2.5,1.893,2.5,3.469v25.973
			c0,3.243,2.084,6.119,5.167,7.128c3.081,1.009,6.463-0.078,8.381-2.693l53.677-73.195c1.205-1.643,2.847-2,3.719-2.067
			c0.875-0.067,2.55,0.036,3.991,1.477c1.604,1.603,1.958,4.021,0.883,6.018l-35.239,65.445c-1.764,3.276-0.859,7.352,2.126,9.573
			c2.986,2.221,7.149,1.917,9.78-0.714l53.469-53.469c1.977-1.977,5.194-1.977,7.171,0c1.867,1.867,2,4.804,0.31,6.833
			l-49.34,59.208c-2.385,2.862-2.308,7.042,0.183,9.814c2.491,2.772,6.638,3.294,9.739,1.228l59.459-39.639
			c2.001-1.332,4.686-1.067,6.385,0.632C480.956,376.199,481.097,377.801,481.06,378.633z"/>
	</g>
</g>
<g>
</g>
<g>
</g>
<g>
</g>
<g>
</g>
<g>
</g>
<g>
</g>
<g>
</g>
<g>
</g>
<g>
</g>
<g>
</g>
<g>
</g>
<g>
</g>
<g>
</g>
<g>
</g>
<g>
</g>
</svg>
