<?xml version="1.0" encoding="iso-8859-1"?>
<!-- Generator: Adobe Illustrator 19.0.0, SVG Export Plug-In . SVG Version: 6.00 Build 0)  -->
<svg xmlns="http://www.w3.org/2000/svg" xmlns:xlink="http://www.w3.org/1999/xlink" version="1.1" id="Layer_1" x="0px" y="0px" viewBox="0 0 512 512" style="enable-background:new 0 0 512 512;" xml:space="preserve">
<circle style="fill:#7FC8F1;" cx="255.996" cy="255.996" r="255.996"/>
<path style="fill:#009AE5;" d="M512,256.001c0-41.13-9.714-79.984-26.951-114.42l-53.792-53.792H305.083  c-16.029,0-30.327-0.606-39.299,5.943c-0.472,0.345-0.93,0.709-1.372,1.095c-2.834,2.47-5.032,5.813-6.473,10.3  c-1.626-1.709-3.502-3.07-5.594-4.153c-7.346-14.158-24.973-13.185-45.429-13.185H80.742v33.245H58.187v280.098l84.438,84.438  C176.802,502.48,215.287,512,255.999,512C397.385,512,512,397.385,512,256.001z"/>
<rect x="58.187" y="121.029" style="fill:#3A4DE3;" width="395.624" height="280.102"/>
<rect x="255.996" y="121.029" style="fill:#1C2EDE;" width="197.807" height="280.102"/>
<polygon style="fill:#FF0335;" points="210.781,446.557 233.39,426.122 255.999,446.557 255.999,377.543 210.781,377.543 "/>
<rect x="80.738" y="326.62" style="fill:#FFB551;" width="350.516" height="53.087"/>
<rect x="255.986" y="326.62" style="fill:#FF8900;" width="175.269" height="53.087"/>
<path style="fill:#FFFFFF;" d="M305.083,87.789c-26.996,0-49.083-1.719-49.083,31.922c0-33.641-22.088-31.922-49.083-31.922H80.742  v248.892H219.83c35.403,0,36.171,29.588,36.171,29.588s0.028-29.588,36.171-29.588h139.087V87.789H305.083z"/>
<path style="fill:#E1E1E3;" d="M305.083,87.789c-26.996,0-49.083-1.719-49.083,31.922c0-0.169-0.009-0.324-0.01-0.491v246.84  c0.007,0.124,0.01,0.21,0.01,0.21s0.028-29.588,36.171-29.588h139.088V87.789H305.083z"/>
<g>
	<rect x="109.65" y="127.141" style="fill:#00A6FF;" width="110.183" height="18.756"/>
	<rect x="109.65" y="171.904" style="fill:#00A6FF;" width="110.183" height="18.756"/>
	<rect x="109.65" y="216.677" style="fill:#00A6FF;" width="110.183" height="18.756"/>
	<rect x="109.65" y="261.451" style="fill:#00A6FF;" width="110.183" height="18.756"/>
</g>
<g>
	<rect x="292.17" y="127.141" style="fill:#006EF5;" width="110.183" height="18.756"/>
	<rect x="292.17" y="171.904" style="fill:#006EF5;" width="110.183" height="18.756"/>
	<rect x="292.17" y="216.677" style="fill:#006EF5;" width="110.183" height="18.756"/>
	<rect x="292.17" y="261.451" style="fill:#006EF5;" width="110.183" height="18.756"/>
</g>
<g>
</g>
<g>
</g>
<g>
</g>
<g>
</g>
<g>
</g>
<g>
</g>
<g>
</g>
<g>
</g>
<g>
</g>
<g>
</g>
<g>
</g>
<g>
</g>
<g>
</g>
<g>
</g>
<g>
</g>
</svg>
